<svg width="200" height="200" viewBox="0 0 200 200" fill="none" xmlns="http://www.w3.org/2000/svg">
<path fill-rule="evenodd" clip-rule="evenodd" d="M129.897 133.533V135.449H99.3596V133.533H129.897ZM123.37 35.9332H104.528V43.1185H123.37V35.9332ZM39.7352 64.0355H31.8652C30.8337 65.4614 29.9031 67.0942 29.0937 68.8423H36.3821C36.3821 68.8423 38.4578 68.6827 38.4578 70.918V89.9885C40.095 89.0773 41.9902 87.8241 43.8865 86.1412V79.3642C43.8865 79.3642 43.7269 74.4142 43.8865 68.9855C44.0464 63.5564 39.7352 64.0355 39.7352 64.0355ZM38.4578 98.9339V124.711H19.2905L19.307 126.957H38.4578V154.134L35.9406 154.171C36.4772 154.536 39.0142 156.119 39.3327 156.303H43.8868V92.3259C42.1035 93.7773 35.6765 98.1904 34.5839 98.9339H38.4578Z" fill="#D25412"/>
<path fill-rule="evenodd" clip-rule="evenodd" d="M103.648 56.6806C103.648 58.5325 102.147 60.0336 100.295 60.0336C98.4428 60.0336 96.9417 58.5325 96.9417 56.6806C96.9417 54.8287 98.4428 53.3275 100.295 53.3275C102.147 53.3275 103.648 54.8287 103.648 56.6806ZM100.295 67.4618C98.4428 67.4618 96.9417 68.9629 96.9417 70.8149C96.9417 72.6668 98.4428 74.1679 100.295 74.1679C102.147 74.1679 103.648 72.6668 103.648 70.8149C103.648 68.9629 102.147 67.4618 100.295 67.4618ZM100.295 81.2601C98.4428 81.2601 96.9417 82.7613 96.9417 84.6132C96.9417 86.4651 98.4428 87.9662 100.295 87.9662C102.147 87.9662 103.648 86.4651 103.648 84.6132C103.648 82.7613 102.147 81.2601 100.295 81.2601ZM130.273 54.3485H107.041C106.756 54.3485 106.522 54.5821 106.522 54.8673C106.522 55.1525 106.756 55.3861 107.041 55.3861H130.273C130.559 55.3861 130.792 55.1525 130.792 54.8673C130.792 54.5821 130.559 54.3485 130.273 54.3485ZM130.273 56.6638H107.041C106.756 56.6638 106.522 56.8973 106.522 57.1829C106.522 57.4684 106.756 57.702 107.041 57.702H130.273C130.559 57.702 130.792 57.4684 130.792 57.1829C130.792 56.8973 130.559 56.6638 130.273 56.6638ZM107.041 60.0172H127.189C127.475 60.0172 127.709 59.7837 127.709 59.4981C127.709 59.2125 127.475 58.979 127.189 58.979H107.041C106.756 58.979 106.522 59.2125 106.522 59.4981C106.522 59.7837 106.756 60.0172 107.041 60.0172ZM107.041 62.3324H116.142C116.427 62.3324 116.661 62.0989 116.661 61.8133C116.661 61.5281 116.428 61.2942 116.142 61.2942H107.041C106.756 61.2942 106.522 61.5277 106.522 61.8133C106.522 62.0989 106.756 62.3324 107.041 62.3324ZM130.273 67.9409H107.041C106.756 67.9409 106.522 68.1744 106.522 68.4597C106.522 68.7449 106.756 68.9787 107.041 68.9787H130.273C130.559 68.9787 130.792 68.7452 130.792 68.4597C130.792 68.1744 130.559 67.9409 130.273 67.9409ZM130.273 70.2561H107.041C106.756 70.2561 106.522 70.4896 106.522 70.7752C106.522 71.0608 106.756 71.2943 107.041 71.2943H130.273C130.559 71.2943 130.792 71.0608 130.792 70.7752C130.792 70.4896 130.559 70.2561 130.273 70.2561ZM130.273 72.5714H107.041C106.756 72.5714 106.522 72.8049 106.522 73.0904C106.522 73.3757 106.756 73.6095 107.041 73.6095H130.273C130.559 73.6095 130.792 73.376 130.792 73.0904C130.792 72.8049 130.559 72.5714 130.273 72.5714ZM107.041 75.9244H119.096C119.382 75.9244 119.615 75.6909 119.615 75.4053C119.615 75.1201 119.382 74.8863 119.096 74.8863H107.041C106.756 74.8863 106.522 75.1198 106.522 75.4053C106.522 75.6909 106.756 75.9244 107.041 75.9244ZM130.273 81.5329H107.041C106.756 81.5329 106.522 81.7664 106.522 82.052C106.522 82.3372 106.756 82.5711 107.041 82.5711H130.273C130.559 82.5711 130.792 82.3376 130.792 82.052C130.792 81.7664 130.559 81.5329 130.273 81.5329ZM130.273 83.8481H107.041C106.756 83.8481 106.522 84.0816 106.522 84.3672C106.522 84.6528 106.756 84.8863 107.041 84.8863H130.273C130.559 84.8863 130.792 84.6528 130.792 84.3672C130.792 84.0816 130.559 83.8481 130.273 83.8481ZM117.4 86.1634H107.041C106.756 86.1634 106.522 86.3969 106.522 86.6825C106.522 86.9677 106.755 87.2015 107.041 87.2015H117.4C117.685 87.2015 117.919 86.968 117.919 86.6825C117.918 86.3969 117.685 86.1634 117.4 86.1634ZM167.155 99.28C166.235 96.4174 163.674 96.4336 163.538 96.5038C162.179 97.2053 160.483 97.7405 158.649 97.7815C158.184 99.9163 156.833 104.123 155.774 107.295C154.586 103.138 156.729 97.6102 156.729 97.6102C154.454 97.2906 153.674 95.4814 153.674 95.4814L150.662 97.7301C149.065 95.934 149.184 93.6785 149.184 93.6785L147.268 94.324C147.187 94.9895 146.909 95.8137 146.001 96.529C145.093 97.2443 144.874 99.2067 144.874 99.2067C144.674 106.352 142.391 116.598 142.391 116.598L155.612 115.733L156.356 112.935C159.987 114.9 165.402 114.492 165.402 114.492C165.402 114.492 167.387 104.936 167.155 99.28ZM159.533 122.875L160.485 127.984L164.393 126.671L164.274 115.653C164.274 115.653 163.176 121.714 159.533 122.875ZM158.166 129.844L157.148 123.317L141.341 122L139.484 138.885C150.202 142.418 158.944 139.364 158.944 139.364C157.747 132.958 158.166 129.844 158.166 129.844Z" fill="#BEBEBE"/>
<path fill-rule="evenodd" clip-rule="evenodd" d="M60.1725 74.0164C58.9878 69.438 62.4951 70.3626 63.8484 72.1215C64.5617 73.0485 66.6098 73.3737 66.5057 71.8383C66.4015 70.3028 63.3129 64.6245 65.4194 62.5011C67.9994 59.8999 71.6807 61.7542 75.2757 61.5009C79.3881 61.2113 80.7239 60.1785 80.7239 60.1785C80.7239 60.1785 83.1295 68.3441 82.1952 74.2687C81.7053 77.3749 79.795 79.722 77.2718 80.9124C77.4058 84.2517 78.1036 84.5104 78.1036 84.5104C74.3914 88.4622 68.7628 85.3486 68.7628 85.3486C69.0544 83.405 68.6361 81.2275 68.4681 80.4753C66.0195 79.0306 64.2499 76.5161 64.2499 76.5161C64.2499 76.5161 61.009 77.2502 60.1725 74.0164ZM156.023 112.746L155.342 115.809L142.391 116.598C143.952 111.248 144.518 102.699 144.684 100.96C144.923 98.4451 145.006 97.1623 146.001 96.529C147.319 95.6907 147.418 93.1692 147.778 92.0914C148.134 91.0213 147.276 89.9227 146.373 89.591C147.045 89.6791 147.714 89.7234 148.376 89.7261C148.802 91.0058 149.392 93.1245 149.115 94.3737C149.115 94.3737 149.741 96.8781 150.471 97.6085C150.847 97.9841 152.325 96.7598 153.674 95.4814C151.642 91.5555 154.541 83.8351 154.541 83.8351C158.889 84.6733 158.947 79.6437 157.498 78.2067C156.049 76.7698 153.905 79.8833 153.905 79.8833C149.892 78.4463 152.758 72.5781 144.955 71.7398C141.937 71.4156 140.373 70.3559 139.606 69.179C139.531 69.3856 139.465 69.599 139.415 69.8237C139.415 69.8237 139.175 76.5299 138.456 79.5238C137.851 82.0483 137.926 85.6799 141.124 87.8335C139.819 87.5349 140.326 89.0565 140.682 90.9239C140.682 90.9239 140.652 91.9419 140.532 94.3367C140.412 96.7316 134.864 108.864 134.624 113.654C134.458 116.982 135.16 119.557 136.848 120.579C136.148 125.538 140.612 126.228 140.612 126.228L140.971 121.797C140.971 121.797 155.701 124.073 159.533 122.875C163.365 121.678 164.074 114.655 164.074 114.655C162.068 114.571 158.194 114.053 156.023 112.746ZM91.6224 117.071C88.9326 118.063 86.5374 117.773 85.8587 117.122C85.18 116.472 88.7757 114.363 87.9478 113.485C87.12 112.607 87.2355 112.591 85.8506 113.65C84.4657 114.71 82.3518 114.753 81.5783 115.976C81.5783 115.976 68.9136 115.109 67.2787 115.211L65.959 111.562C63.758 113.54 58.9613 114.135 56.7808 114.306C57.4937 116.433 58.7566 119.646 60.3327 121.319C62.8159 123.953 66.2255 123.526 70.6274 122.821C76.2736 121.918 78.9466 120.805 80.8462 120.915C82.7459 121.026 85.8701 122.331 87.423 122.489C88.9759 122.647 96.4316 118.641 96.2804 117.545C96.1296 116.45 94.3119 116.08 91.6224 117.071ZM122.008 102.895C121.57 102.785 119.161 103.114 116.86 102.895C114.56 102.676 112.696 100.582 112.696 100.582C112.696 100.582 114.328 100.438 115.314 99.6714C116.3 98.9047 115.437 97.966 115.437 97.966C115.437 97.966 112.26 98.6232 111.274 98.6232C110.289 98.6232 110.179 99.828 108.755 101.471C107.331 103.114 96.8751 105.818 96.8751 105.818C96.6564 105.38 96.228 104.288 95.7919 103.135C94.9395 103.828 93.3665 104.698 90.5248 105.268C90.1495 107.042 89.9177 108.569 89.922 110.316C90.9424 112.2 92.3612 113.921 94.1651 114.007C98.7653 114.226 109.851 106.728 109.851 106.728C114.451 108.152 119.362 107.925 121.005 106.501C122.648 105.077 122.446 103.005 122.008 102.895Z" fill="#FFD2BB"/>
<path fill-rule="evenodd" clip-rule="evenodd" d="M107.112 125.902L107.031 120.44C107.031 120.44 121.32 120.52 121.401 120.44L121.361 125.902H107.112ZM117.569 110.623H110.684V112.659H117.569V110.623ZM21.9727 111.978C21.9338 112.063 21.8934 112.147 21.8555 112.233C21.4533 113.14 21.0905 114.078 20.7676 115.038L20.7965 116.976H33.7441L33.781 111.972C33.7209 112.031 25.2267 111.994 21.9727 111.978ZM23.8596 141.829C24.8904 143.526 26.1083 145.195 27.5285 146.818H33.644V141.814C33.5942 141.864 27.6504 141.846 23.8596 141.829ZM30.2297 74.9857H26.8689C26.6952 75.6257 26.538 76.2668 26.3982 76.9058H30.2297V74.9857ZM30.1884 104.928V103.079H29.118C28.4366 103.67 27.7811 104.284 27.1545 104.928H30.1884ZM30.348 132.738H23.7017V134.771H30.348V132.738ZM165.688 92.9364C161.564 93.2955 165.019 85.1524 165.019 85.1524C165.019 85.1524 169.137 77.3832 163.681 67.9076C156.993 56.2915 139.382 65.1533 139.382 65.1533C139.047 65.1533 137.153 70.9015 144.955 71.7398C152.757 72.5781 149.892 78.4459 153.905 79.8833C153.905 79.8833 156.048 76.7697 157.497 78.2067C158.947 79.6437 158.888 84.6733 154.541 83.835C154.541 83.835 149.86 96.2894 156.548 97.6068C163.236 98.9242 169.175 92.6326 165.688 92.9364ZM139.601 86.4311C138.969 89.2779 138.425 93.6029 140.089 96.2031C140.349 95.3742 140.513 94.7258 140.532 94.3371C140.652 91.9419 140.682 90.9242 140.682 90.9242C140.326 89.0568 139.819 87.5352 141.124 87.8339C140.504 87.4156 140.004 86.9412 139.601 86.4311ZM146.373 89.591C147.276 89.9226 148.134 91.0213 147.778 92.0914C147.603 92.6145 147.489 93.478 147.268 94.3239C147.779 94.1462 148.434 93.9228 149.184 93.6785C149.197 92.4361 148.731 90.7915 148.376 89.7261C147.714 89.7234 147.045 89.6791 146.373 89.591ZM102.134 156.047H127.123V135.449H102.134V156.047ZM78.4571 54.0599C77.843 54.1016 68.4698 48.351 60.2068 55.5362C50.0982 64.3261 60.4416 76.466 60.4416 76.466C60.4416 76.466 56.2022 84.0531 62.2142 85.9087C67.2217 87.4542 68.3583 81.6599 68.5128 80.6849C68.4974 80.611 68.4826 80.5421 68.4698 80.484L68.4463 80.4618C66.0091 79.0151 64.2499 76.5161 64.2499 76.5161C64.2499 76.5161 61.0094 77.2502 60.1728 74.0167C58.9882 69.4384 62.4954 70.363 63.8488 72.1218C64.562 73.0488 66.6102 73.374 66.506 71.8386C66.4019 70.3032 63.3132 64.6248 65.4198 62.5014C67.9998 59.9003 71.6811 61.7545 75.2761 61.5012C79.3885 61.2116 80.7243 60.1788 80.7243 60.1788C80.7243 60.1788 80.7267 60.1872 80.7314 60.2033C80.7334 60.2104 80.7364 60.2204 80.7394 60.2312C80.7438 60.246 80.7478 60.2611 80.7542 60.2829C80.7579 60.2964 80.7623 60.3118 80.767 60.328C80.7744 60.3542 80.7821 60.382 80.7915 60.4153C80.7969 60.4345 80.8026 60.455 80.8083 60.4768C80.8184 60.5131 80.8288 60.5514 80.8402 60.5941C80.8473 60.6199 80.8543 60.6461 80.8617 60.6743C80.8745 60.7217 80.8879 60.7721 80.902 60.8255C80.9098 60.8554 80.9175 60.884 80.9256 60.9156C80.9407 60.9737 80.9568 61.0362 80.9733 61.1007C80.982 61.1343 80.9901 61.1662 80.9991 61.2015C81.019 61.2798 81.0398 61.3634 81.0613 61.4495C81.0677 61.475 81.0734 61.4978 81.0798 61.524C81.1087 61.641 81.1382 61.7633 81.1691 61.8926C81.4477 61.8069 84.9553 60.6384 84.2682 56.3396C83.5522 51.863 79.0713 54.0183 78.4571 54.0599ZM33.5415 88.7481V84.1972H25.9171C25.6776 86.4725 26.5158 88.7481 26.5158 88.7481H33.5415Z" fill="#D25412"/>
<path fill-rule="evenodd" clip-rule="evenodd" d="M178.335 143.113C178.335 143.113 168.635 147.784 167.317 148.263C166 148.742 161.569 148.143 161.569 148.143C161.569 148.143 159.533 142.275 158.695 137.246C157.857 132.216 158.216 129.94 158.216 129.94L158.311 129.858L157.268 123.257L159.543 123.078L160.381 128.073L160.485 127.984L168.963 125.055C168.963 125.055 169.62 124.796 170.475 124.712L166.708 107.629L167.307 102.759L172.992 125.279C173.354 125.548 173.672 125.927 173.908 126.453C174.612 128.019 177.057 135.063 177.057 135.063C177.057 135.063 178.397 137.113 177.083 137.818L177.078 138.203L178.335 143.113ZM77.5553 94.8084C77.5761 94.3129 77.1911 93.8942 76.6955 93.8737C76.1999 93.8529 75.7813 94.2379 75.7608 94.7335C75.74 95.2291 76.125 95.6477 76.6206 95.6682C77.1158 95.689 77.5344 95.304 77.5553 94.8084ZM77.562 100.382C78.0576 100.403 78.4762 100.018 78.4967 99.5222C78.5175 99.0266 78.1325 98.608 77.6369 98.5872C77.1413 98.5663 76.7227 98.9514 76.7022 99.4469C76.6814 99.9428 77.0664 100.361 77.562 100.382ZM137.677 37.5298H123.37V40.8173H136.463V96.5582H94.3324C94.9351 97.8988 95.4932 99.1664 95.9195 100.145H109.731C110.319 99.2202 110.581 98.6231 111.274 98.6231C112.26 98.6231 115.436 97.966 115.436 97.966C115.436 97.966 116.299 98.9047 115.313 99.6714C115.061 99.8673 114.767 100.022 114.469 100.145H137.677C138.071 100.145 138.448 100.063 138.791 99.9173C139.294 98.5435 139.558 97.8148 139.873 96.8216C139.949 96.5837 140.083 96.2229 140.089 96.2027C138.425 93.6026 138.968 89.2775 139.6 86.4308C139.61 86.4429 139.621 86.4543 139.631 86.4664C137.926 84.3424 137.965 81.5699 138.456 79.5234C139.175 76.5295 139.414 69.8234 139.414 69.8234C139.464 69.5986 139.53 69.3853 139.605 69.1786C138.389 67.3133 139.176 65.1529 139.381 65.1529C139.381 65.1529 139.801 64.9419 140.534 64.6278V40.3866C140.534 38.8156 139.249 37.5298 137.677 37.5298ZM91.4349 90.4333V40.8173H104.528V37.5298H90.2203C88.6489 37.5298 87.3632 38.8156 87.3632 40.3869V86.9069C88.3902 87.3003 89.6354 87.8688 90.2717 88.5051C90.516 88.7497 90.9312 89.4617 91.4349 90.4333ZM157.116 97.6992C155.322 100.504 155.95 105.893 155.95 105.893C155.95 105.893 157.777 101.013 158.525 97.8695C157.953 97.8947 157.711 97.7795 157.116 97.6992ZM166.818 98.0792C166.591 96.0583 166.25 95.0997 165.944 94.7829C165.41 95.3356 165.179 95.7394 164.214 96.2528C166.818 97.0313 166.856 98.4111 166.818 98.0792ZM69.561 94.41C75.868 93.7713 74.6306 86.4264 74.6306 86.4264C75.2293 89.6599 79.0615 93.7316 82.774 92.0551C86.4863 90.3785 85.648 84.9894 85.648 84.9894L77.9836 83.792L77.6937 83.8411C77.9013 84.4307 78.1036 84.5107 78.1036 84.5107C74.3914 88.4625 68.7627 85.3489 68.7627 85.3489L61.7371 88.5024C61.7371 88.5024 62.8878 95.0856 69.561 94.41ZM81.2238 141.999C70.8051 143.017 67.2125 140.862 66.0749 138.706C64.9373 136.55 65.2366 132.599 65.2366 132.599C65.2366 132.599 64.5781 134.634 64.3983 136.311C64.3046 137.185 64.1286 138.302 63.8379 139.189L63.6864 140.12C63.6864 140.12 62.1093 151.358 62.0851 156.304L101.043 156.31C98.4871 148.301 95.2751 137.525 95 136.738C93.5542 138.071 89.3619 141.204 81.2238 141.999Z" fill="#F48850"/>
<path fill-rule="evenodd" clip-rule="evenodd" d="M33.6443 146.818H33.7152L33.6877 152.545C31.313 150.725 29.2759 148.805 27.5372 146.818H33.6443ZM30.2298 135.795V134.771H23.9211V135.795C23.9211 135.795 22.7159 136.307 21.7846 137.816C22.3685 139.166 23.061 140.506 23.8647 141.829C23.8791 141.829 23.8942 141.829 23.909 141.829C25.772 141.837 28.3842 141.846 30.5718 141.847C32.3474 141.846 33.6574 141.837 33.6806 141.814L33.6803 141.838C33.6994 141.838 33.7199 141.838 33.7387 141.838L33.7407 141.445C33.7407 141.445 33.5761 137.44 30.2298 135.795ZM33.7152 116.976H20.7747C20.8449 120.693 20.9588 124.615 20.9588 124.615H33.6809L33.7152 116.976ZM30.2298 105.953V104.929H26.9893C25.0009 106.918 23.2982 109.19 22.0369 111.986C25.768 111.999 31.3204 112.014 33.7387 111.997L33.7407 111.603C33.7407 111.603 33.5761 107.598 30.2298 105.953ZM107.447 133.709H121.333L121.37 125.902H107.246C107.322 129.959 107.447 133.709 107.447 133.709ZM117.566 113.87V112.752H110.68V113.87C110.68 113.87 107.266 115.317 107.191 120.447C110.438 120.46 117.806 120.486 121.396 120.471L121.398 120.037C121.398 120.037 121.218 115.666 117.566 113.87ZM167.12 148.32C165.609 148.689 161.569 148.143 161.569 148.143C161.569 148.143 159.024 139.604 159.024 139.644C159.024 139.644 150.429 142.305 140.283 139.385L137.978 156.406H168.994L167.12 148.32ZM90.2718 88.5055C91.4693 89.703 96.7384 102.038 96.7384 102.038C96.7384 102.038 95.9012 104.19 90.5242 105.269C89.744 108.955 89.5814 111.571 90.8763 117.314C88.4999 118.002 86.4733 117.712 85.8581 117.123C85.1794 116.472 88.7751 114.363 87.9472 113.485C87.1193 112.607 87.2349 112.591 85.85 113.651C84.4651 114.71 82.3511 114.754 81.5777 115.976C81.5777 115.976 68.913 115.109 67.2781 115.211L65.9584 111.562C64.1713 113.168 60.6725 113.862 58.2527 114.158C58.2507 114.159 58.2484 114.159 58.2464 114.159C58.0706 114.18 57.9016 114.2 57.7384 114.217C57.7236 114.219 57.7081 114.22 57.6933 114.222C57.5378 114.238 57.3889 114.253 57.2472 114.266C57.23 114.268 57.2129 114.269 57.1961 114.271C57.056 114.284 56.9233 114.295 56.799 114.305C56.0991 114.36 55.6623 114.373 55.6623 114.373C54.7041 109.343 53.5756 98.2392 54.9437 95.3316C56.8598 91.2599 61.7698 89.3438 61.7698 89.3438L61.9535 89.321C62.517 91.0623 64.3645 94.9365 69.5604 94.4104C74.1895 93.9417 74.7537 89.8629 74.7268 87.7244L75.01 87.6891C76.2037 90.6037 79.534 93.5183 82.7738 92.0552C85.2963 90.9159 85.7173 88.0641 85.7284 86.3523C85.8782 86.3953 89.1023 87.3357 90.2718 88.5055ZM72.8295 101.897L72.4169 99.0855L65.9849 100.029L66.3975 102.84L72.8295 101.897ZM76.6203 95.6683C77.1159 95.6891 77.5345 95.3041 77.555 94.8085C77.5759 94.3129 77.1908 93.8943 76.6953 93.8738C76.1997 93.853 75.7811 94.238 75.7606 94.7336C75.7398 95.2292 76.1248 95.6474 76.6203 95.6683ZM78.4971 99.5223C78.518 99.0267 78.1329 98.6081 77.6374 98.5873C77.1418 98.5664 76.7232 98.9515 76.7027 99.447C76.6818 99.9426 77.0669 100.361 77.5624 100.382C78.0577 100.403 78.4763 100.018 78.4971 99.5223ZM88.7683 122.359C87.1661 122.928 86.276 122.47 84.6378 121.795C81.1638 120.623 79.1425 121.056 78.8946 121.104C67.6914 123.857 64.4579 123.318 64.4579 123.318C64.4579 123.318 64.4579 126.072 64.3981 127.689C64.3383 129.305 62.7216 140.682 62.7216 140.682C63.7396 140.562 64.2184 137.987 64.3981 136.311C64.5779 134.634 65.2364 132.599 65.2364 132.599C65.2364 132.599 64.937 136.55 66.0747 138.706C67.2123 140.862 70.8049 143.017 81.2236 141.999C91.6423 140.981 95.5941 136.132 95.5941 136.132L91.7619 121.042C91.7619 121.042 90.6246 121.701 88.7683 122.359ZM33.5415 91.862V89.1476H26.6755C28.6715 94.1772 33.5415 91.862 33.5415 91.862ZM30.2298 77.9299V76.9059H26.4026C25.8647 79.3669 25.5822 81.7913 25.6084 83.9712C28.4981 83.9819 32.2786 83.9886 33.7387 83.9695L33.7407 83.5804C33.7407 83.5804 33.5761 79.5759 30.2298 77.9299Z" fill="#3F3F3F"/>
<path d="M25.443 156.307C25.443 156.492 25.2928 156.643 25.1073 156.643L23.243 156.646C23.0575 156.646 22.907 156.496 22.9067 156.311C22.9063 156.125 23.0565 155.974 23.2423 155.974L25.107 155.971C25.2918 155.971 25.4426 156.122 25.443 156.307ZM175.108 156.304C175.108 156.49 174.957 156.64 174.772 156.64C174.772 156.64 174.772 156.64 174.771 156.64C125.914 156.567 76.3444 156.567 27.4387 156.64C27.2532 156.64 27.1027 156.49 27.1024 156.304C27.102 156.119 27.2522 155.968 27.438 155.968C30.9849 155.962 34.5416 155.958 38.0949 155.954C17.3415 143.336 16.1867 124.529 21.6168 112.098C24.6218 105.219 30.2434 101.441 36.1953 97.4416C42.4243 93.2556 48.865 88.9272 53.4293 80.5915C54.6946 78.2803 56.2519 75.9954 58.0604 73.7658C57.3001 72.5314 56.6722 71.1563 56.2146 69.6736C54.4671 64.01 55.8184 58.5268 59.741 55.3643C67.4198 49.1728 75.2555 52.4144 77.8308 53.4797C78.0911 53.5873 78.3596 53.6985 78.455 53.7223C78.5293 53.7092 78.7063 53.6561 78.8639 53.6091C79.7828 53.3346 81.6955 52.7624 83.0952 53.642C83.3838 53.8231 83.6328 54.057 83.8444 54.3385C84.8971 53.8473 85.9581 53.3766 87.0278 52.9304V40.387C87.0278 38.6265 88.4604 37.1939 90.221 37.1939H104.193V35.9333C104.193 35.7478 104.343 35.5973 104.529 35.5973H123.37C123.556 35.5973 123.706 35.7478 123.706 35.9333V37.1939H137.678C139.438 37.1939 140.871 38.6265 140.871 40.387V52.8579C145.384 54.9483 149.732 57.5421 153.728 60.5874C154.263 60.9949 154.785 61.4122 155.302 61.8332C159.143 62.4887 162.093 64.475 163.973 67.74C165.075 69.6538 165.785 71.5023 166.224 73.2387C172.407 81.669 176.081 91.4258 176.831 101.797C177.6 112.439 176.742 121.583 175.27 129.036C176.159 131.455 177.22 134.503 177.363 134.916C177.518 135.162 178.185 136.296 177.947 137.231C177.863 137.562 177.664 137.83 177.38 138.024L178.661 143.031C178.7 143.186 178.625 143.347 178.481 143.417C178.171 143.566 172.396 146.346 169.263 147.78C168.813 148.741 168.375 149.621 167.954 150.428L169.236 155.961C171.081 155.964 172.93 155.965 174.773 155.968C174.958 155.968 175.108 156.119 175.108 156.304ZM168.314 148.207C167.967 148.361 167.696 148.477 167.517 148.546L167.718 149.414C167.914 149.028 168.113 148.626 168.314 148.207ZM173.602 126.591C172.467 124.065 169.225 125.313 169.088 125.367L160.751 128.248L160.81 128.608C160.81 128.608 160.904 129.016 160.621 129.106C160.242 129.225 160.149 128.729 160.149 128.729L159.269 123.34C158.796 123.429 158.238 123.49 157.607 123.524L158.616 129.646C158.616 129.646 158.655 129.83 158.547 129.97C158.546 129.978 158.549 129.985 158.548 129.993C158.544 130.015 158.21 132.292 159.026 137.191C159.765 141.624 161.462 146.778 161.819 147.837C162.988 147.985 165.45 148.222 166.713 148.055L166.228 145.961C166.228 145.961 166.125 145.521 166.389 145.413C166.695 145.287 166.851 145.672 166.851 145.672L167.364 147.885C168.965 147.238 176.474 143.635 177.941 142.93L176.77 138.354C174.449 139.479 168.817 141.641 168.561 141.739C168.549 141.743 168.194 141.865 167.7 141.865C166.891 141.865 165.706 141.537 165.041 139.827C163.424 135.664 162.301 131.948 162.29 131.911C162.236 131.733 162.337 131.546 162.514 131.492C162.692 131.437 162.88 131.54 162.933 131.717C162.944 131.754 164.061 135.446 165.668 139.583C166.498 141.718 168.254 141.134 168.329 141.108C168.387 141.086 175.063 138.523 176.925 137.523C177.126 137.416 177.243 137.27 177.296 137.066C177.449 136.464 176.973 135.549 176.777 135.247C176.762 135.224 176.75 135.199 176.741 135.174C176.716 135.103 174.292 128.126 173.602 126.591ZM151.44 89.4268C151.411 89.1661 151.635 89.0377 151.717 89.0186C152.125 88.9228 152.52 88.8035 152.908 88.6718C153.357 86.0636 154.162 83.8872 154.227 83.7165C154.284 83.5629 154.445 83.4732 154.605 83.5048C156.051 83.783 157.099 83.3902 157.638 82.3679C158.319 81.0777 157.989 79.1667 157.261 78.4446C157.047 78.2326 156.813 78.1423 156.538 78.1675C155.622 78.2531 154.527 79.5722 154.182 80.0731C154.095 80.1985 153.936 80.2505 153.792 80.1991C152.021 79.5651 151.469 78.111 150.935 76.7046C150.159 74.6622 149.357 72.5506 144.919 72.0738C142.207 71.7825 140.642 70.9144 139.747 69.9222C139.716 70.741 139.466 76.7564 138.783 79.6021C138.29 81.6549 137.75 86.6358 143.355 88.5469C145.461 89.2645 147.65 89.5118 149.704 89.3361C149.796 89.3283 150.063 89.3861 150.063 89.6465C150.063 89.9059 149.852 89.999 149.762 90.0067C149.471 90.0319 149.176 90.046 148.881 90.0547C149.192 90.9538 149.754 92.884 149.46 94.366C149.644 95.0789 150.165 96.7844 150.682 97.3421C151.031 97.3387 152.058 96.5263 153.26 95.4075C152.491 93.726 152.503 91.4904 152.791 89.4234C152.479 89.5198 152.162 89.6069 151.838 89.6814C151.734 89.7053 151.464 89.6462 151.44 89.4268ZM163.777 96.7578C162.435 97.4694 160.759 98.0265 158.918 98.1105C158.081 101.718 155.247 109.918 154.765 111.305C157.499 114.334 163.784 114.229 165.123 114.171C165.43 112.63 167.008 104.428 166.824 99.3788C166.682 98.9407 166.488 98.5221 166.222 98.1528C165.659 97.3717 164.835 96.9047 163.777 96.7578ZM166.66 97.6253C166.649 97.5605 166.64 97.4926 166.628 97.4301C166.468 96.5912 166.209 95.892 165.897 95.2933C165.548 95.6135 165.125 95.9431 164.634 96.2599C165.463 96.5082 166.142 96.9651 166.66 97.6253ZM166.684 109.173C166.24 112.086 165.774 114.348 165.73 114.56C165.7 114.707 165.576 114.816 165.426 114.827C165.376 114.831 165.151 114.847 164.797 114.857C164.636 118.62 164.566 122.541 164.672 126.182L168.854 124.737C169.163 124.615 169.554 124.503 169.983 124.43L166.684 109.173ZM170.655 124.356C171.241 124.325 171.859 124.385 172.432 124.603L167.339 103.831C167.24 104.977 167.107 106.14 166.958 107.258L170.655 124.356ZM164.009 117.6C163.43 119.737 162.252 122.416 159.923 123.178L160.641 127.575L163.987 126.419C163.896 123.573 163.917 120.566 164.009 117.6ZM158.228 98.1219C157.837 98.1138 157.44 98.0846 157.038 98.0285C155.931 100.425 155.913 103.672 156.015 105.495C156.88 102.854 157.798 99.9207 158.228 98.1219ZM156.356 97.9052C155.152 97.6381 154.227 97.0038 153.597 96.0183C152.458 97.0676 151.279 98.001 150.677 98.0134C150.672 98.0134 150.667 98.0134 150.661 98.0134C150.446 98.0134 150.31 97.923 150.234 97.8461C149.46 97.072 148.855 94.7208 148.789 94.455C148.776 94.4043 148.776 94.3515 148.787 94.3008C148.797 94.2544 148.802 94.2051 148.811 94.1577C148.339 94.3136 147.909 94.4594 147.547 94.5844C147.295 95.4868 146.911 96.3493 146.182 96.8129C145.365 97.3327 145.258 98.4575 145.046 100.698L145.018 100.992C144.999 101.197 144.974 101.497 144.942 101.875C144.404 108.303 143.715 113.05 142.846 116.249L155.309 115.49L155.854 113.038C155.201 112.644 154.61 112.171 154.127 111.595C154.051 111.504 154.028 111.38 154.067 111.268C154.083 111.221 154.717 109.406 155.498 107.061C155.487 107.034 155.474 107.008 155.47 106.978C155.431 106.699 154.753 101.548 156.356 97.9052ZM148.096 92.1979C148.009 92.4593 147.933 92.8386 147.852 93.2408C147.816 93.4236 147.777 93.6127 147.736 93.8046C148.076 93.6883 148.457 93.5596 148.867 93.4249C148.861 92.117 148.379 90.64 148.169 90.0594C147.992 90.0564 147.816 90.0517 147.638 90.043C147.72 90.1448 147.797 90.2523 147.865 90.3685C148.204 90.9531 148.289 91.6197 148.096 92.1979ZM140 95.3161C140.114 94.8911 140.185 94.5498 140.196 94.32C140.302 92.2016 140.338 91.152 140.345 90.9501C140.012 89.2007 139.832 88.0644 140.242 87.5833C140.083 87.4462 139.935 87.3051 139.795 87.1609C139.298 89.6636 138.969 92.9949 140 95.3161ZM138.668 101.227C137.077 105.544 135.098 110.916 134.96 113.671C134.809 116.692 135.398 118.94 136.619 120C136.682 120.055 136.748 120.104 136.815 120.151C137.165 118.256 137.906 116.998 139.019 116.414C140.258 115.763 141.532 116.179 141.866 116.308L142.132 116.292C142.918 113.465 143.676 108.94 144.272 101.819C144.304 101.438 144.33 101.135 144.349 100.929L144.377 100.635C144.602 98.2539 144.726 96.9423 145.82 96.2461C146.673 95.7035 146.961 94.2649 147.193 93.1088C147.282 92.6676 147.358 92.2866 147.459 91.9856C147.59 91.5905 147.526 91.1241 147.284 90.7058C147.053 90.3091 146.694 90.0161 146.334 89.926C145.264 89.7866 144.191 89.542 143.138 89.1828C142.248 88.8795 141.505 88.5001 140.879 88.0708C140.788 88.0278 140.74 88.0217 140.727 88.0217C140.725 88.0217 140.724 88.0217 140.724 88.0217C140.516 88.2576 140.838 89.9512 141.011 90.8611C141.016 90.8849 141.018 90.9095 141.017 90.9336C141.017 90.9437 140.986 91.9826 140.867 94.3536C140.816 95.3971 139.868 97.9697 138.668 101.227ZM138.095 124.159C138.845 125.212 139.978 125.65 140.548 125.813L140.876 121.77C140.883 121.677 140.929 121.592 141.002 121.534C141.076 121.476 141.17 121.451 141.262 121.465C141.409 121.488 155.957 123.714 159.673 122.555C162.937 121.534 163.733 115.891 163.852 114.865C162.012 114.846 158.92 114.605 156.467 113.375L155.909 115.882C155.877 116.029 155.751 116.136 155.602 116.145L141.83 116.983C141.776 116.985 141.721 116.976 141.671 116.954C141.66 116.949 140.442 116.42 139.326 117.011C138.402 117.499 137.778 118.606 137.47 120.3C137.183 121.876 137.394 123.174 138.095 124.159ZM139.78 138.698C146.264 141.036 153.562 140.361 158.749 139.31C158.605 138.635 158.474 137.96 158.364 137.301C157.526 132.275 157.869 129.983 157.884 129.888C157.893 129.832 157.919 129.784 157.952 129.742L156.93 123.549C151.906 123.673 143.586 122.491 141.587 122.194C141.037 128.239 139.986 137 139.78 138.698ZM165.316 85.3097C164.718 86.7228 163.353 90.7603 164.356 92.1398C164.62 92.504 165.049 92.6555 165.659 92.6018C166.316 92.543 166.751 92.6942 166.952 93.0473C167.098 93.303 167.161 93.7602 166.638 94.4859C166.568 94.5827 166.487 94.6832 166.397 94.786C166.783 95.4781 167.098 96.3076 167.288 97.3045C167.509 98.4643 167.55 99.9802 167.483 101.63C167.488 101.644 167.497 101.655 167.501 101.67L173.234 125.053C173.624 125.354 173.966 125.76 174.216 126.316C174.358 126.633 174.57 127.169 174.817 127.82C176.15 120.623 176.888 111.912 176.16 101.845C175.395 91.2518 171.809 82.1599 166.521 74.6084C167.63 80.8099 165.347 85.2502 165.316 85.3097ZM139.558 65.4406C139.4 65.7057 139.001 67.0328 139.567 68.3982C140.256 70.0583 142.131 71.0985 144.991 71.4056C149.839 71.9263 150.754 74.3383 151.563 76.4661C152.059 77.771 152.49 78.908 153.787 79.4751C154.196 78.9402 155.324 77.6064 156.475 77.4989C156.949 77.4545 157.375 77.6121 157.734 77.9679C158.66 78.8858 159.069 81.0969 158.232 82.682C157.853 83.399 156.906 84.5201 154.763 84.2131C154.284 85.5949 152.183 92.1324 154.032 95.4485C154.588 96.4464 155.432 97.0444 156.612 97.2769C161.005 98.1424 165.017 95.5873 166.093 94.0928C166.394 93.6752 166.404 93.4431 166.367 93.3789C166.334 93.3204 166.16 93.2317 165.717 93.2707C164.863 93.345 164.221 93.0973 163.812 92.5342C162.406 90.5993 164.47 85.5862 164.709 85.0207C164.762 84.9186 168.682 77.2674 163.39 68.075C157.051 57.066 140.323 65.067 139.558 65.4406ZM140.87 64.1259C142.639 63.4002 145.653 62.3261 148.975 61.8419C150.821 61.5728 152.538 61.5227 154.122 61.6753C149.965 58.4401 145.475 55.7473 140.87 53.6138V64.1259ZM123.705 40.4814H136.463C136.649 40.4814 136.799 40.6319 136.799 40.8174V96.5583C136.799 96.7437 136.649 96.8942 136.463 96.8942H94.8551C95.3342 97.965 95.7774 98.9736 96.1416 99.8089H109.545C109.587 99.7427 109.63 99.6738 109.669 99.6116C110.126 98.8715 110.487 98.2872 111.274 98.2872C112.214 98.2872 115.337 97.6435 115.368 97.6367C115.485 97.6142 115.603 97.6512 115.683 97.7386C115.733 97.793 116.171 98.2886 116.117 98.9272C116.09 99.2582 115.931 99.5525 115.659 99.8092H137.677C137.976 99.8092 138.262 99.7554 138.528 99.659C138.993 98.3897 139.416 97.2057 139.721 96.2495C138.114 93.5714 138.613 89.3545 139.235 86.5044C137.319 83.9318 137.836 80.6715 138.13 79.4455C138.832 76.5191 139.076 69.8785 139.079 69.812C139.079 69.7915 139.082 69.771 139.086 69.7512C139.126 69.5731 139.176 69.4008 139.233 69.2314C138.646 68.2507 138.576 67.2505 138.61 66.6259C138.611 66.6091 138.71 65.0529 139.255 64.8412C139.345 64.7969 139.676 64.6366 140.198 64.4095V40.387C140.198 38.9967 139.068 37.8658 137.677 37.8658H123.705V40.4814ZM112.383 100.459C112.43 100.341 112.539 100.259 112.666 100.248C112.681 100.246 114.213 100.102 115.107 99.4067C115.321 99.2411 115.432 99.066 115.448 98.8715C115.465 98.6655 115.372 98.4666 115.293 98.3383C114.557 98.4868 112.143 98.9595 111.274 98.9595C110.878 98.9595 110.682 99.2498 110.241 99.9651C109.948 100.438 109.584 101.027 109.009 101.692C107.559 103.365 98.0395 105.864 96.959 106.143C96.8062 106.183 96.6452 106.11 96.5743 105.968C96.3768 105.573 96.0179 104.672 95.6359 103.671C94.7113 104.321 93.2105 105.045 90.8086 105.552C90.4706 107.183 90.2613 108.614 90.2583 110.231C91.2266 112.005 92.5429 113.594 94.1808 113.672C98.6194 113.885 109.552 106.525 109.662 106.451C109.747 106.393 109.853 106.378 109.95 106.408C114.644 107.861 119.342 107.498 120.785 106.247C121.793 105.373 121.955 104.331 121.978 103.923C121.999 103.54 121.93 103.298 121.882 103.214C121.706 103.196 121.224 103.22 120.757 103.243C119.765 103.292 118.266 103.367 116.829 103.23C114.425 103.001 112.525 100.896 112.445 100.806C112.36 100.711 112.336 100.577 112.383 100.459ZM97.0518 102.159C97.0356 102.201 96.8492 102.651 96.1893 103.236C96.5246 104.12 96.8471 104.942 97.0605 105.422C100.125 104.617 107.422 102.495 108.501 101.251C108.735 100.981 108.928 100.724 109.1 100.481H96.4339C96.7359 101.177 96.955 101.689 97.0477 101.906C97.082 101.987 97.0837 102.078 97.0518 102.159ZM104.864 42.7822H123.033V36.2689H104.864V42.7822ZM104.192 43.1182V41.1534H91.7708V90.3531C92.5903 91.9345 93.6187 94.1469 94.5534 96.2223H136.127V41.1534H123.705V43.1182C123.705 43.3036 123.555 43.4542 123.369 43.4542H104.528C104.342 43.4542 104.192 43.304 104.192 43.1182ZM87.6991 86.6768C88.7114 87.0779 89.8766 87.6353 90.5093 88.2676C90.6567 88.4151 90.8587 88.7135 91.0989 89.122V40.8174C91.0989 40.6319 91.2494 40.4814 91.4349 40.4814H104.192V37.8658H90.2203C88.83 37.8658 87.6991 38.9967 87.6991 40.387V86.6768ZM86.0585 86.8055C85.9779 88.6134 85.4041 91.2357 82.9121 92.3609C81.5215 92.9888 80.0049 92.9126 78.5256 92.1388C77.1215 91.4047 75.8418 90.0493 75.0472 88.5552C74.9699 89.8037 74.6521 91.365 73.6932 92.6223C72.7575 93.8496 71.3786 94.5632 69.5949 94.744C69.2583 94.7779 68.9347 94.794 68.6243 94.794C64.2132 94.7944 62.4056 91.5216 61.7444 89.7187C60.925 90.0739 56.901 91.9627 55.2486 95.4741C53.9638 98.2042 55.0124 108.96 55.9401 114.023C57.412 113.947 64.1306 113.459 66.1854 110.841C65.8074 109.738 63.8208 103.769 63.7103 99.8912C63.7049 99.7057 63.851 99.5508 64.0365 99.5458C64.2159 99.5354 64.3765 99.6862 64.3819 99.872C64.4988 103.963 66.8543 110.72 66.8782 110.788C66.9138 110.89 66.8983 111.004 66.8359 111.092C66.6958 111.291 66.5325 111.479 66.3517 111.657L67.5129 114.867C68.3615 114.854 70.3532 114.946 72.5801 115.07C72.5851 115.066 72.5878 115.06 72.5932 115.056C77.4726 111.577 85.7992 110.3 86.1513 110.247C86.3344 110.223 86.5057 110.347 86.5333 110.53C86.5608 110.714 86.4345 110.885 86.2507 110.912C86.1701 110.924 78.5198 112.099 73.6905 115.134C77.0217 115.329 80.5384 115.568 81.4133 115.628C81.931 114.958 82.7864 114.647 83.6882 114.319C84.3756 114.07 85.0866 113.811 85.6473 113.383L85.8284 113.244C87.0047 112.341 87.2237 112.217 88.0724 113.125L88.193 113.254C88.8556 113.957 87.9047 114.914 87.0658 115.759C86.7211 116.105 86.1526 116.678 86.112 116.898C86.6357 117.364 88.3751 117.617 90.4807 117.075C89.251 111.504 89.4177 108.895 90.183 105.261C90.1844 105.219 90.1924 105.18 90.2085 105.143C90.2522 104.938 90.2969 104.731 90.3443 104.519C91.2598 100.399 87.6383 95.0964 87.6017 95.043C87.4962 94.8905 87.5345 94.6811 87.687 94.5757C87.8396 94.4705 88.0489 94.5081 88.1544 94.661C88.3109 94.8874 91.9788 100.261 91.0001 104.665C90.988 104.72 90.9762 104.773 90.9642 104.828C94.9831 103.923 96.1245 102.439 96.369 102.025C94.8632 98.5073 90.9672 89.6744 90.0352 88.7427C89.1556 87.8645 86.9818 87.1015 86.0585 86.8055ZM95.9474 117.573C95.9188 117.379 95.7996 117.213 95.5835 117.084C95.0272 116.749 93.7252 116.654 91.7383 117.386C89.0215 118.387 86.45 118.155 85.6258 117.365C85.5042 117.248 85.4387 117.097 85.4366 116.929C85.4309 116.474 85.8707 116.008 86.588 115.285C87.0534 114.817 87.9199 113.945 87.7031 113.715L87.5802 113.584C87.3988 113.39 87.2042 113.176 87.1323 113.175C87.006 113.187 86.6663 113.447 86.2363 113.777L86.0542 113.916C85.4114 114.408 84.6515 114.684 83.9163 114.951C83.0532 115.265 82.2381 115.561 81.8622 116.155C81.7963 116.26 81.6821 116.317 81.5551 116.311C81.4288 116.302 68.8961 115.443 67.2995 115.546C67.1507 115.551 67.0136 115.465 66.9629 115.325L65.8044 112.122C63.5429 113.815 59.4779 114.406 57.241 114.607C57.9643 116.692 59.1456 119.569 60.5772 121.087C62.87 123.519 65.8834 123.239 70.5743 122.489C73.1929 122.07 75.1533 121.61 76.7284 121.24C78.5797 120.805 79.8036 120.518 80.8657 120.579C81.9499 120.642 83.3596 121.062 84.723 121.469C85.7861 121.786 86.79 122.086 87.4569 122.153C88.8223 122.303 95.8049 118.525 95.9474 117.573ZM87.3894 122.823C86.6589 122.748 85.6255 122.44 84.5312 122.114C83.2044 121.718 81.8326 121.309 80.827 121.25C79.8611 121.197 78.6757 121.473 76.8823 121.894C75.2965 122.267 73.3233 122.73 70.6808 123.153C68.9613 123.428 67.2817 123.697 65.712 123.697C65.4254 123.697 65.1429 123.687 64.864 123.667C64.8623 124.149 64.8606 124.606 64.8606 125.031C64.8606 127.962 63.6246 136.63 63.1347 139.951C63.6276 138.856 63.8823 137.225 63.9505 136.496L64.9117 130.842C64.9409 130.67 65.0978 130.546 65.2712 130.564C65.4452 130.578 65.579 130.724 65.579 130.899C65.579 130.919 65.582 132.969 65.8178 136.625C66.0393 140.055 69.4837 140.983 69.5186 140.992C86.3156 144.156 94.1909 137.147 95.2482 136.109C94.9243 134.857 93.019 127.481 91.5135 121.386C89.7906 122.249 88.1137 122.895 87.3894 122.823ZM69.6191 80.6829C70.1291 80.8959 70.6472 81.0626 71.1686 81.1859C71.2943 81.2155 71.5637 81.3435 71.5436 81.583C71.5238 81.8226 71.2459 81.8931 71.0961 81.8592C70.5118 81.7261 69.9309 81.5417 69.3601 81.3031C69.2169 81.2433 69.0765 81.1775 68.9371 81.1096C69.1131 82.0917 69.3093 83.656 69.1276 85.1568C70.1204 85.6336 74.5392 87.4922 77.6349 84.507C77.3701 84.1109 77.0738 83.2522 76.9602 81.417C75.8189 81.8837 74.599 82.1202 73.3582 82.1202C73.3081 82.1202 72.9608 82.0221 72.9806 81.7826C73.0071 81.4637 73.3095 81.4446 73.3599 81.4446C74.8634 81.4446 76.3343 81.0777 77.649 80.3436C79.9121 79.0796 81.4482 76.8464 81.8628 74.2167C82.5146 70.0828 81.4993 64.7743 80.8589 62.0546C80.8472 62.0331 80.8324 62.0139 80.8253 61.9894C80.8146 61.9515 80.8142 61.9138 80.8166 61.8765C80.6956 61.3709 80.5905 60.9647 80.5162 60.6885C79.8423 61.0292 78.2746 61.6266 75.2988 61.8362C74.093 61.9205 72.8899 61.7767 71.726 61.637C69.3399 61.3504 67.279 61.1028 65.6572 62.7376C64.2888 64.1172 65.4463 67.4356 66.2119 69.6312C66.5449 70.5861 66.808 71.3404 66.8402 71.8154C66.8839 72.4575 66.6057 72.9406 66.0769 73.1409C65.3055 73.4318 64.14 73.0518 63.5819 72.3265C62.8434 71.3669 61.4982 70.7759 60.8148 71.1099C60.2151 71.4029 60.1025 72.4051 60.4976 73.9321C61.2405 76.8044 64.0563 76.2141 64.1759 76.1879C64.2001 76.1825 64.2246 76.1798 64.2488 76.1798C64.357 76.1798 64.4605 76.2319 64.5243 76.3223C64.5468 76.3542 66.7828 79.4976 69.6191 80.6829ZM68.1697 80.6873C67.8629 80.5005 67.568 80.2999 67.2861 80.0893C67.2807 80.0889 67.2757 80.0889 67.2703 80.0886C64.8559 79.8951 62.5343 78.7437 60.5924 76.9062C60.1233 77.8523 58.7089 81.0354 59.6335 83.3415C60.0645 84.4163 60.966 85.1719 62.3133 85.5879C63.6229 85.9927 64.7568 85.894 65.6821 85.2942C67.4729 84.1351 68.0457 81.4278 68.1707 80.6917C68.1704 80.69 68.17 80.689 68.1697 80.6873ZM78.3482 84.7402C77.3322 85.8217 76.1767 86.3956 75.0257 86.6563C75.4944 88.5929 77.0546 90.6114 78.8367 91.5431C79.7358 92.0131 81.125 92.4304 82.6356 91.7484C85.6379 90.3924 85.445 86.3173 85.3442 85.2815L78.2228 84.1687C78.2413 84.1932 78.2548 84.207 78.2615 84.2131C78.3458 84.2581 78.408 84.3374 78.4305 84.4314C78.4563 84.542 78.4258 84.6579 78.3482 84.7402ZM68.7536 85.7209L62.1221 88.6977C62.406 89.8807 63.9021 94.6455 69.527 94.0757C71.1182 93.9148 72.3402 93.2888 73.1586 92.2154C74.5734 90.3601 74.43 87.6636 74.3366 86.7776C74.01 86.8182 73.6861 86.8367 73.3683 86.8367C71.1831 86.8367 69.2872 85.9843 68.7536 85.7209ZM84.1656 54.8707C84.3655 55.2745 84.5127 55.7439 84.599 56.2858C85.2253 60.2044 82.5224 61.6995 81.5658 62.1003C82.2227 64.9124 83.1883 70.1255 82.5264 74.3212C82.0792 77.1562 80.4208 79.5651 77.9766 80.9302C77.8586 80.9961 77.738 81.0549 77.6181 81.1153C77.6755 82.2671 77.8022 83.0022 77.9292 83.4645C77.9638 83.4588 77.9991 83.4541 78.0357 83.4598L85.7001 84.6572C85.8445 84.6797 85.9577 84.793 85.9803 84.9374C85.99 84.9999 86.0555 85.4491 86.0679 86.1029C86.2857 86.1701 86.622 86.278 87.0275 86.4231V53.5943C86.0599 54.0035 85.1064 54.4296 84.1656 54.8707ZM66.2859 79.2691C65.1808 78.273 64.394 77.2741 64.0997 76.88C63.3037 76.9828 60.6209 77.092 59.8472 74.1008C59.2273 71.7046 59.8707 70.8236 60.5198 70.5065C61.6107 69.9729 63.259 70.8055 64.1144 71.9169C64.4901 72.4048 65.3438 72.6997 65.8393 72.5126C65.9962 72.4531 66.2015 72.3211 66.1703 71.8615C66.1441 71.4764 65.8817 70.7242 65.5776 69.8527C64.7078 67.3584 63.5164 63.9425 65.1805 62.2646C67.0331 60.3969 69.3517 60.6747 71.8063 60.9697C72.9386 61.1058 74.1091 61.2466 75.2515 61.1656C79.2163 60.8861 80.5051 59.9225 80.5179 59.9127C80.6059 59.8449 80.7208 59.825 80.8267 59.859C80.9322 59.8932 81.0142 59.9772 81.0454 60.0834C81.0686 60.1617 81.2127 60.6586 81.4076 61.4438C82.2902 61.0641 84.4747 59.7686 83.9352 56.3917C83.7668 55.3381 83.3633 54.6043 82.7367 54.2105C81.5947 53.4929 79.9427 53.9871 79.0554 54.2525C78.7859 54.3331 78.6075 54.3862 78.4792 54.395C78.3193 54.4087 78.1472 54.3378 77.5731 54.1C75.0888 53.0722 67.53 49.9456 60.1616 55.8867C55.7344 59.4565 55.551 65.2464 56.8556 69.475C58.4468 74.6303 62.1547 78.4292 66.2859 79.2691ZM27.8294 104.593H29.8937V103.341C29.7304 103.34 29.5039 103.338 29.2234 103.337C28.7453 103.743 28.283 104.163 27.8294 104.593ZM22.5744 111.645C26.9334 111.667 32.2435 111.681 33.4046 111.652L33.405 111.601C33.4036 111.579 33.2034 107.789 30.0815 106.254C29.9666 106.198 29.8937 106.081 29.8937 105.953V105.265H27.1407C25.3317 107.09 23.7688 109.16 22.5744 111.645ZM21.0846 115.409C21.0907 115.819 21.0974 116.23 21.1048 116.64H33.3808L33.4016 112.308C32.9286 112.333 31.9858 112.345 30.0512 112.345C28.3448 112.345 25.8616 112.335 22.2569 112.316C22.2491 112.333 22.2404 112.35 22.2327 112.367C21.806 113.343 21.4213 114.359 21.0846 115.409ZM21.1176 117.312C21.1747 120.212 21.2557 123.469 21.2842 124.375H33.3465L33.3774 117.312H21.1176ZM19.5435 124.375H20.618C20.5971 123.642 20.5135 120.649 20.4523 117.659C19.9309 119.801 19.6117 122.056 19.5435 124.375ZM33.3774 147.154H28.2662C29.7435 148.776 31.4345 150.352 33.3549 151.865L33.3774 147.154ZM33.4013 142.151C32.9282 142.175 31.9855 142.188 30.0509 142.188C28.7161 142.188 26.8998 142.181 24.4508 142.17C25.3748 143.632 26.4442 145.073 27.6685 146.482H33.3808L33.4013 142.151ZM33.4046 141.444C33.4033 141.421 33.2031 137.631 30.0811 136.096C29.9662 136.04 29.8933 135.923 29.8933 135.795V135.107H24.257V135.795C24.257 135.93 24.1763 136.052 24.052 136.104C23.9814 136.135 22.9796 136.59 22.1537 137.855C22.6896 139.076 23.3149 140.292 24.0355 141.494C28.0478 141.512 32.3698 141.52 33.405 141.494L33.4046 141.444ZM29.8937 134.435V133.183C29.1585 133.177 27.2206 133.167 24.257 133.184V134.435H29.8937ZM38.1218 154.507H37.051C37.4018 154.735 37.7586 154.961 38.1218 155.186V154.507ZM38.1218 127.293H19.6164C19.6073 127.293 19.6 127.288 19.5912 127.288C19.7935 130.523 20.5014 133.842 21.845 137.127C22.5159 136.244 23.2376 135.774 23.585 135.587V132.851C23.585 132.666 23.7342 132.516 23.9186 132.515C27.9658 132.487 30.2112 132.514 30.2337 132.515C30.4178 132.517 30.5656 132.667 30.5656 132.851V135.589C33.871 137.354 34.0695 141.263 34.0763 141.432L34.0242 152.385C34.6706 152.876 35.3449 153.359 36.0421 153.835H38.1218V127.293ZM38.1218 125.047H19.5307C19.5264 125.573 19.5351 126.101 19.5569 126.632C19.5771 126.629 19.5952 126.62 19.6164 126.62H38.1218V125.047ZM38.1218 99.2699H34.6888C33.075 100.37 31.5067 101.481 30.0328 102.67C30.1611 102.672 30.23 102.672 30.2337 102.672C30.4178 102.675 30.5656 102.824 30.5656 103.008V105.747C33.871 107.512 34.0695 111.42 34.0763 111.589L34.0178 124.375H38.1218V99.2699ZM38.1218 97.0246H38.0156C37.5328 97.3515 37.0503 97.6757 36.5692 97.9993C36.2715 98.1995 35.9752 98.3987 35.6796 98.598H38.1214L38.1218 97.0246ZM43.5509 93.0345C41.9896 94.2699 40.393 95.4025 38.7941 96.4954V155.594C38.9943 155.714 39.1946 155.834 39.3985 155.952C40.7834 155.95 42.1653 155.948 43.5509 155.947V93.0345ZM61.7562 155.929C61.6591 152.543 62.5672 145.022 63.0564 141.266C62.9714 141.348 62.8827 141.421 62.7887 141.481C62.6774 141.552 62.535 141.552 62.4248 141.479C62.3143 141.407 62.2561 141.277 62.276 141.147C62.2951 141.022 64.188 128.557 64.188 125.031C64.188 124.605 64.1897 124.145 64.1914 123.662C64.1914 123.641 64.1914 123.619 64.1917 123.598C62.659 123.386 61.2663 122.799 60.0881 121.549C58.5217 119.887 57.2769 116.811 56.5435 114.663C56.054 114.696 55.7348 114.707 55.6716 114.708C55.6686 114.708 55.6652 114.708 55.6622 114.708C55.5013 114.708 55.3625 114.594 55.3323 114.435C54.5058 110.095 53.1323 98.3924 54.6398 95.1881C56.4518 91.3378 60.764 89.3979 61.5334 89.077C61.4447 88.7662 61.4074 88.571 61.4058 88.56C61.3792 88.4084 61.4589 88.2586 61.599 88.1958L68.4526 85.1195C68.5698 84.1916 68.5299 83.2169 68.4398 82.3863C68.0501 83.5616 67.3328 85.0251 66.0493 85.857C65.3828 86.2891 64.6345 86.5054 63.8124 86.5054C63.2768 86.5054 62.7104 86.4137 62.1147 86.2299C60.5638 85.7512 59.5186 84.8632 59.0089 83.5902C57.8884 80.7925 59.7343 77.0809 60.0918 76.4066C59.5041 75.7931 58.9568 75.1151 58.4579 74.3796C56.6964 76.5574 55.2019 78.7521 54.0179 80.9148C51.2646 85.943 47.8547 89.5279 44.2221 92.4953V155.946C50.0608 155.939 55.9061 155.933 61.7562 155.929ZM100.52 155.913C98.1635 148.413 95.3403 139.126 94.8088 137.375C92.6625 139.073 87.1898 142.471 77.7706 142.471C75.2562 142.471 72.4608 142.229 69.3722 141.647C69.311 141.632 65.3992 140.578 65.1469 136.668C65.0888 135.767 65.0448 134.962 65.0112 134.26L64.6157 136.583C64.5932 136.83 64.4269 138.412 63.936 139.75C63.594 142.277 62.3112 152.069 62.4285 155.928C75.112 155.918 87.8157 155.913 100.52 155.913ZM126.787 135.785H102.47V155.711H126.787V135.785ZM127.123 135.113H129.561V133.869H99.6956V135.113H102.134H127.123ZM111.016 113.088V113.87C111.016 114.005 110.935 114.127 110.811 114.18C110.682 114.235 107.743 115.554 107.536 120.106C112.528 120.134 119.701 120.158 121.062 120.121L121.062 120.036C121.06 120.01 120.842 115.856 117.417 114.172C117.303 114.115 117.23 113.998 117.23 113.871V113.089L111.016 113.088ZM117.23 112.416V110.99C116.448 110.983 114.309 110.97 111.016 110.991V112.416H117.23ZM107.523 120.778C107.522 122.19 107.509 123.87 107.493 125.566H121.037L121.058 120.775C120.554 120.802 119.513 120.816 117.299 120.816C115.234 120.816 112.145 120.804 107.523 120.778ZM107.486 126.238C107.459 128.952 107.427 131.616 107.426 133.197H121.003L121.034 126.238H107.486ZM137.733 155.926L139.893 139.441C139.694 139.372 139.494 139.311 139.297 139.237C139.151 139.183 139.062 139.036 139.081 138.881C139.094 138.77 139.867 132.416 140.487 126.492C139.869 126.334 138.476 125.851 137.548 124.548C136.848 123.565 136.569 122.333 136.712 120.881C136.526 120.772 136.346 120.652 136.179 120.506C134.778 119.291 134.125 116.916 134.289 113.637C134.432 110.779 136.431 105.354 138.037 100.994C138.108 100.802 138.178 100.611 138.248 100.421C138.062 100.456 137.873 100.48 137.678 100.48H114.531C114.131 100.639 113.731 100.744 113.409 100.81C114.078 101.412 115.401 102.417 116.892 102.56C118.282 102.692 119.693 102.622 120.724 102.571C121.5 102.533 121.881 102.516 122.09 102.568C122.258 102.61 122.482 102.757 122.593 103.221C122.78 104.002 122.57 105.588 121.225 106.754C119.442 108.299 114.391 108.445 109.905 107.096C108.592 107.974 98.8993 114.347 94.3636 114.347C94.2907 114.347 94.2191 114.345 94.1489 114.342C92.5779 114.267 91.2988 113.081 90.3023 111.598C90.3994 113.073 90.6591 114.758 91.1264 116.885C91.2524 116.844 91.3784 116.802 91.5061 116.755C93.4104 116.053 95.0224 115.962 95.9293 116.507C96.3197 116.74 96.5562 117.084 96.6136 117.498C96.6496 117.759 96.5115 118.041 96.1789 118.386C95.4787 119.112 93.8338 120.168 92.1277 121.069C93.7729 127.737 95.9215 136.028 95.946 136.123C95.9743 136.232 95.9461 136.348 95.8701 136.432C95.8594 136.444 95.692 136.623 95.3695 136.907C95.4935 137.316 98.6258 147.645 101.191 155.806C101.202 155.841 101.202 155.877 101.202 155.912C101.4 155.912 101.599 155.912 101.798 155.912V135.784H99.3596C99.1741 135.784 99.0236 135.634 99.0236 135.448V133.532C99.0236 133.347 99.1741 133.196 99.3596 133.196H106.786C106.807 130.429 106.851 124.516 106.851 120.616C106.851 115.871 109.56 114.079 110.344 113.661V110.656C110.344 110.471 110.493 110.322 110.677 110.32C115.095 110.291 117.545 110.32 117.57 110.32C117.754 110.323 117.902 110.472 117.902 110.656V113.664C121.51 115.578 121.726 119.84 121.733 120.023L121.675 133.197H129.897C130.083 133.197 130.233 133.347 130.233 133.533V135.449C130.233 135.635 130.083 135.785 129.897 135.785H127.459V155.92C130.884 155.923 134.311 155.924 137.733 155.926ZM168.545 155.96L166.865 148.709C166.498 148.762 166.054 148.782 165.581 148.782C163.819 148.782 161.653 148.494 161.524 148.476C161.398 148.459 161.293 148.373 161.252 148.254C161.234 148.205 159.846 144.18 158.893 139.964C156.234 140.502 153.032 140.944 149.656 140.944C146.661 140.944 143.534 140.596 140.541 139.662L138.41 155.927C148.477 155.934 158.522 155.946 168.545 155.96ZM179 155.974L177.356 155.971C177.17 155.971 177.02 156.122 177.019 156.307C177.019 156.492 177.169 156.643 177.355 156.643L179 156.646C179.185 156.646 179.336 156.495 179.336 156.31C179.336 156.125 179.186 155.974 179 155.974ZM182.945 155.974H181.647C181.462 155.974 181.311 156.124 181.311 156.31C181.311 156.495 181.462 156.646 181.647 156.646H182.945C183.131 156.646 183.281 156.495 183.281 156.31C183.281 156.124 183.131 155.974 182.945 155.974ZM165.723 143.782C165.723 143.782 165.89 144.055 166.13 143.975C166.478 143.859 166.342 143.478 166.342 143.478L166.078 142.337C166.078 142.337 165.97 141.94 165.611 142.079C165.344 142.183 165.453 142.618 165.453 142.618L165.723 143.782ZM26.8201 90.5832C22.9994 84.6162 26.6185 68.6794 33.3835 61.6813C37.9736 56.9326 44.4378 55.4244 49.1029 58.0134C53.218 60.2974 54.8085 65.1258 53.3577 70.9295C49.1358 87.8168 34.2443 92.2745 33.7265 92.4234C32.7075 92.7792 31.8165 92.9297 31.0387 92.9297C28.8619 92.9297 27.5677 91.7511 26.8201 90.5832ZM33.3774 89.2894H26.9001C27.0456 89.6216 27.2042 89.9371 27.3856 90.2207C28.6499 92.1952 30.6624 92.7352 33.365 91.8334L33.3774 89.2894ZM32.5415 63.6995H39.7187C39.9293 63.6797 41.5568 63.5736 42.812 64.7307C43.8045 65.6455 44.2789 67.0802 44.2225 68.9952C44.0649 74.3518 44.2208 79.3041 44.2225 79.3535V85.3433C47.6743 82.1169 51.0388 77.4333 52.7056 70.7665C54.0781 65.2763 52.6095 60.7288 48.7767 58.6014C47.3504 57.8098 45.7418 57.4278 44.0703 57.4278C40.5855 57.4278 36.8259 59.0866 33.8663 62.1483C33.4093 62.6207 32.9685 63.1432 32.5415 63.6995ZM29.6464 68.5064H36.3821C36.3975 68.5047 37.39 68.4362 38.1033 69.0967C38.5616 69.5211 38.7941 70.1339 38.7941 70.918V89.3851C40.2596 88.5274 41.9029 87.4022 43.5509 85.9531V79.3642C43.5495 79.3256 43.3929 74.3528 43.5509 68.9758C43.6013 67.2639 43.1994 66.002 42.3565 65.2249C41.2635 64.2173 39.7869 64.3681 39.7721 64.3698C39.7597 64.3712 39.7476 64.3718 39.7351 64.3718H32.0446C31.1674 65.6113 30.3627 67.0096 29.6464 68.5064ZM27.3469 74.6377C29.2106 74.6377 30.2189 74.6498 30.2337 74.6498C30.4178 74.6521 30.5656 74.802 30.5656 74.9857V77.7246C33.871 79.4892 34.0695 83.398 34.0763 83.5666L34.038 91.6174C34.7764 91.363 36.2699 90.7895 38.1218 89.7675V70.918C38.1218 70.3311 37.9632 69.8856 37.6504 69.5936C37.1558 69.1316 36.4127 69.1763 36.4063 69.1777L29.3363 69.1784C28.5491 70.9174 27.8775 72.7676 27.3469 74.6377ZM26.8484 76.5699H29.8937V75.3184C29.4364 75.3147 28.5091 75.3093 27.1635 75.3096C27.052 75.7299 26.9451 76.1502 26.8484 76.5699ZM25.9587 83.6369C29.3373 83.6486 32.5314 83.651 33.4046 83.6295L33.405 83.5791C33.4036 83.5569 33.2034 79.7671 30.0815 78.2316C29.9666 78.1752 29.8937 78.0583 29.8937 77.9303V77.2422H26.7025C26.2298 79.4657 25.9688 81.6499 25.9587 83.6369ZM26.6397 88.6174H33.3808L33.4016 84.2856C32.9286 84.3102 31.9858 84.3226 30.0512 84.3226C29.0074 84.3226 27.6675 84.3189 25.9644 84.3115C26.0034 85.9319 26.2234 87.3955 26.6397 88.6174ZM146.711 111.421C146.622 111.416 146.31 111.402 146.31 111.761C146.31 111.987 146.657 112.098 146.75 112.104C148.143 112.199 149.684 112.562 150.809 113.548C150.872 113.603 150.952 113.631 151.03 113.631C151.123 113.631 151.217 113.592 151.283 113.516C151.405 113.377 151.391 113.165 151.252 113.042C149.961 111.911 148.237 111.514 146.711 111.421ZM104.314 67.6927C104.45 67.818 104.46 68.0303 104.335 68.1674L103.531 69.047C103.819 69.5725 103.984 70.1745 103.984 70.8149C103.984 72.8489 102.329 74.5039 100.295 74.5039C98.2606 74.5039 96.6056 72.8489 96.6056 70.8149C96.6056 68.7806 98.2606 67.1259 100.295 67.1259C101.441 67.1259 102.467 67.6517 103.144 68.4748L103.839 67.7145C103.964 67.5767 104.176 67.5677 104.314 67.6927ZM103.312 70.8149C103.312 70.3748 103.215 69.9575 103.044 69.5798L100.542 72.3187C100.479 72.3886 100.388 72.4283 100.294 72.4283C100.289 72.4283 100.284 72.4283 100.279 72.4279C100.179 72.4232 100.087 72.3745 100.027 72.2949L98.6692 70.4984C98.5573 70.3502 98.5865 70.1396 98.7347 70.0277C98.8828 69.9158 99.0935 69.9451 99.2054 70.0932L100.319 71.5672L102.683 68.9788C102.131 68.2621 101.267 67.7975 100.294 67.7975C98.6305 67.7975 97.2772 69.1511 97.2772 70.8146C97.2772 72.478 98.6305 73.8317 100.294 73.8317C101.958 73.832 103.312 72.4787 103.312 70.8149ZM117.233 49.5696H115.574V48.9276H117.015V48.3292H115.574V47.709H117.211V47.1106H114.905V50.1683H117.234L117.233 49.5696ZM112.076 48.2244L113.557 50.168H114.129V47.1103H113.465V48.9931L112.032 47.1103H111.412V50.168H112.076L112.076 48.2244ZM121.484 47.1103H120.811V50.168H121.484V47.1103ZM118.546 48.9844H120.005V48.3729H118.546V47.7221H120.202V47.1106H117.873V50.1683H118.546V48.9844ZM110.772 49.5696H109.112V48.9276H110.553V48.3292H109.112V47.709H110.75V47.1106H108.444V50.1683H110.772L110.772 49.5696ZM106.703 50.168H105.248V47.1103H106.668C107.018 47.1103 107.293 47.2064 107.467 47.3811C107.607 47.5208 107.677 47.6912 107.677 47.9008V47.9096C107.677 48.2546 107.494 48.4468 107.275 48.5691C107.629 48.7045 107.847 48.9098 107.847 49.3203V49.3291C107.847 49.8885 107.393 50.168 106.703 50.168ZM105.903 48.3463H106.524C106.821 48.3463 107.008 48.2502 107.008 48.0231V48.0144C107.008 47.8135 106.851 47.6999 106.567 47.6999H105.903L105.903 48.3463ZM105.903 49.5784H106.703C107 49.5784 107.179 49.4735 107.179 49.2464V49.2377C107.179 49.0324 107.026 48.9057 106.681 48.9057H105.904L105.903 49.5784ZM72.7491 99.0368L73.1617 101.848C73.1885 102.031 73.0615 102.202 72.8781 102.229L66.4461 103.173C66.43 103.175 66.4135 103.177 66.3974 103.177C66.3255 103.177 66.2553 103.154 66.1968 103.111C66.1256 103.057 66.0779 102.977 66.0651 102.89L65.6525 100.078C65.6257 99.8949 65.7527 99.7242 65.9361 99.6973L72.3681 98.7535C72.5505 98.7257 72.7225 98.853 72.7491 99.0368ZM72.448 101.613L72.1332 99.4665L66.3662 100.312L66.681 102.459L72.448 101.613ZM104.314 53.5584C104.45 53.6837 104.46 53.896 104.335 54.0331L103.531 54.9127C103.819 55.4382 103.984 56.0402 103.984 56.6806C103.984 58.7146 102.329 60.3697 100.295 60.3697C98.2606 60.3697 96.6056 58.7146 96.6056 56.6806C96.6056 54.6463 98.2606 52.9916 100.295 52.9916C101.441 52.9916 102.467 53.5174 103.144 54.3405L103.839 53.5802C103.964 53.4421 104.176 53.4337 104.314 53.5584ZM103.312 56.6806C103.312 56.2405 103.215 55.8232 103.044 55.4456L100.542 58.1845C100.479 58.2543 100.388 58.294 100.294 58.294C100.289 58.294 100.284 58.294 100.279 58.2937C100.179 58.2889 100.087 58.2402 100.027 58.1606L98.6692 56.3641C98.5573 56.216 98.5865 56.0053 98.7347 55.8934C98.8828 55.7815 99.0935 55.8108 99.2054 55.9589L100.319 57.4329L102.683 54.8445C102.131 54.1279 101.267 53.6632 100.294 53.6632C98.6305 53.6632 97.2772 55.0169 97.2772 56.6803C97.2772 58.3437 98.6305 59.6974 100.294 59.6974C101.958 59.6977 103.312 58.3444 103.312 56.6806ZM104.314 81.4913C104.45 81.6166 104.46 81.829 104.335 81.966L103.531 82.8456C103.819 83.3711 103.984 83.9732 103.984 84.6135C103.984 86.6476 102.329 88.3026 100.295 88.3026C98.2606 88.3026 96.6056 86.6476 96.6056 84.6135C96.6056 82.5792 98.2606 80.9245 100.295 80.9245C101.441 80.9245 102.467 81.4503 103.144 82.2735L103.839 81.5131C103.964 81.375 104.176 81.3663 104.314 81.4913ZM103.312 84.6135C103.312 84.1734 103.215 83.7561 103.044 83.3785L100.542 86.1174C100.479 86.1873 100.388 86.2269 100.294 86.2269C100.289 86.2269 100.284 86.2269 100.279 86.2266C100.179 86.2219 100.087 86.1732 100.027 86.0935L98.6692 84.2971C98.5573 84.1489 98.5865 83.9382 98.7347 83.8263C98.8828 83.7145 99.0935 83.7437 99.2054 83.8919L100.319 85.3658L102.683 82.7774C102.131 82.0608 101.267 81.5961 100.294 81.5961C98.6305 81.5961 97.2772 82.9498 97.2772 84.6132C97.2772 86.2766 98.6305 87.6303 100.294 87.6303C101.958 87.6306 103.312 86.277 103.312 84.6135ZM123.003 50.168H123.676V47.7308H124.606V47.1106H122.073V47.7308H123.003V50.168H123.003ZM76.6064 96.0039C75.9264 95.9757 75.3963 95.3995 75.4248 94.7194C75.4386 94.3902 75.5797 94.0858 75.8226 93.8627C76.0652 93.6393 76.3824 93.524 76.7096 93.5381C77.0389 93.5519 77.3433 93.693 77.5663 93.9356C77.7898 94.1782 77.905 94.4933 77.8909 94.8226C77.8771 95.1519 77.736 95.4563 77.4934 95.6793C77.2636 95.8907 76.9693 96.0052 76.6592 96.0052C76.6414 96.0052 76.6239 96.0049 76.6064 96.0039ZM76.2439 95.1515C76.3457 95.2621 76.4842 95.3266 76.6343 95.3326C76.9448 95.3454 77.2065 95.1038 77.2196 94.7944C77.226 94.6445 77.1732 94.5007 77.0718 94.3905C76.97 94.28 76.8316 94.2155 76.6814 94.2094C76.6733 94.2091 76.6652 94.2091 76.6572 94.2091C76.5161 94.2091 76.382 94.2612 76.2772 94.3573C76.1667 94.4591 76.1021 94.5975 76.0961 94.7477C76.0897 94.8975 76.1421 95.041 76.2439 95.1515ZM131.128 84.3673C131.128 84.8386 130.744 85.222 130.273 85.222H107.041C106.57 85.222 106.186 84.8383 106.186 84.3673C106.186 83.8962 106.57 83.5125 107.041 83.5125H130.273C130.745 83.5122 131.128 83.8959 131.128 84.3673ZM130.456 84.3673C130.456 84.2682 130.372 84.1845 130.273 84.1845H107.041C106.942 84.1845 106.858 84.2685 106.858 84.3673C106.858 84.466 106.942 84.55 107.041 84.55H130.273C130.372 84.55 130.456 84.4664 130.456 84.3673ZM106.186 75.4057C106.186 74.9343 106.57 74.551 107.041 74.551H119.096C119.567 74.551 119.951 74.9347 119.951 75.4057C119.951 75.8768 119.567 76.2604 119.096 76.2604H107.041C106.569 76.2604 106.186 75.8768 106.186 75.4057ZM106.858 75.4057C106.858 75.5048 106.942 75.5885 107.041 75.5885H119.096C119.195 75.5885 119.279 75.5045 119.279 75.4057C119.279 75.3069 119.195 75.2229 119.096 75.2229H107.041C106.942 75.2226 106.858 75.3066 106.858 75.4057ZM107.041 54.0126H130.273C130.744 54.0126 131.128 54.3963 131.128 54.8677C131.128 55.3391 130.744 55.7224 130.273 55.7224H107.041C106.57 55.7224 106.186 55.3387 106.186 54.8677C106.186 54.3963 106.569 54.0126 107.041 54.0126ZM130.273 54.6846H107.041C106.942 54.6846 106.858 54.7686 106.858 54.8677C106.858 54.9668 106.942 55.0505 107.041 55.0505H130.273C130.372 55.0505 130.456 54.9665 130.456 54.8677C130.456 54.7686 130.372 54.6846 130.273 54.6846ZM131.128 82.052C131.128 82.5234 130.744 82.9068 130.273 82.9068H107.041C106.57 82.9068 106.186 82.5231 106.186 82.052C106.186 81.581 106.57 81.1973 107.041 81.1973H130.273C130.745 81.197 131.128 81.5807 131.128 82.052ZM130.456 82.052C130.456 81.9529 130.372 81.8693 130.273 81.8693H107.041C106.942 81.8693 106.858 81.9533 106.858 82.052C106.858 82.1508 106.942 82.2348 107.041 82.2348H130.273C130.372 82.2348 130.456 82.1512 130.456 82.052ZM118.255 86.6825C118.255 87.1539 117.871 87.5372 117.4 87.5372H107.041C106.57 87.5372 106.186 87.1535 106.186 86.6825C106.186 86.2115 106.57 85.8278 107.041 85.8278H117.4C117.871 85.8278 118.255 86.2111 118.255 86.6825ZM117.583 86.6825C117.583 86.5834 117.499 86.4997 117.4 86.4997H107.041C106.942 86.4997 106.858 86.5837 106.858 86.6825C106.858 86.7813 106.942 86.8653 107.041 86.8653H117.4C117.499 86.8653 117.583 86.7816 117.583 86.6825ZM131.128 70.7749C131.128 71.2463 130.744 71.63 130.273 71.63H107.041C106.57 71.63 106.186 71.2463 106.186 70.7749C106.186 70.3035 106.57 69.9202 107.041 69.9202H130.273C130.745 69.9202 131.128 70.3035 131.128 70.7749ZM130.456 70.7749C130.456 70.6758 130.372 70.5921 130.273 70.5921H107.041C106.942 70.5921 106.858 70.6761 106.858 70.7749C106.858 70.874 106.942 70.958 107.041 70.958H130.273C130.372 70.958 130.456 70.8744 130.456 70.7749ZM131.128 73.0902C131.128 73.5615 130.744 73.9449 130.273 73.9449H107.041C106.57 73.9449 106.186 73.5612 106.186 73.0902C106.186 72.6191 106.57 72.2354 107.041 72.2354H130.273C130.745 72.2354 131.128 72.6191 131.128 73.0902ZM130.456 73.0902C130.456 72.991 130.372 72.9074 130.273 72.9074H107.041C106.942 72.9074 106.858 72.9914 106.858 73.0902C106.858 73.1889 106.942 73.2729 107.041 73.2729H130.273C130.372 73.2733 130.456 73.1893 130.456 73.0902ZM131.128 68.4597C131.128 68.9311 130.744 69.3148 130.273 69.3148H107.041C106.57 69.3148 106.186 68.9311 106.186 68.4597C106.186 67.9883 106.57 67.605 107.041 67.605H130.273C130.745 67.605 131.128 67.9883 131.128 68.4597ZM130.456 68.4597C130.456 68.3606 130.372 68.2769 130.273 68.2769H107.041C106.942 68.2769 106.858 68.3609 106.858 68.4597C106.858 68.5588 106.942 68.6428 107.041 68.6428H130.273C130.372 68.6428 130.456 68.5591 130.456 68.4597ZM131.128 57.1829C131.128 57.6543 130.744 58.0376 130.273 58.0376H107.041C106.57 58.0376 106.186 57.6539 106.186 57.1829C106.186 56.7115 106.57 56.3278 107.041 56.3278H130.273C130.745 56.3278 131.128 56.7115 131.128 57.1829ZM130.456 57.1829C130.456 57.0838 130.372 56.9998 130.273 56.9998H107.041C106.942 56.9998 106.858 57.0838 106.858 57.1829C106.858 57.282 106.942 57.3657 107.041 57.3657H130.273C130.372 57.366 130.456 57.282 130.456 57.1829ZM78.8326 99.536C78.8189 99.8653 78.6778 100.17 78.4352 100.393C78.2057 100.604 77.9111 100.719 77.6013 100.719C77.5835 100.719 77.566 100.718 77.5482 100.718C77.2189 100.704 76.9145 100.562 76.6915 100.32C76.468 100.077 76.3528 99.7622 76.3666 99.4329C76.3948 98.7532 76.968 98.216 77.651 98.2513C78.331 98.2802 78.8609 98.856 78.8326 99.536ZM78.1614 99.5082C78.1745 99.1984 77.9329 98.9356 77.6231 98.9229C77.6151 98.9225 77.607 98.9225 77.5989 98.9225C77.4578 98.9225 77.3234 98.9749 77.2189 99.071C77.1084 99.1728 77.0439 99.3113 77.0378 99.4615C77.0247 99.7712 77.2663 100.034 77.5761 100.047C77.7306 100.054 77.8697 100.001 77.9803 99.8989C78.0908 99.7968 78.155 99.6583 78.1614 99.5082ZM106.186 59.4981C106.186 59.0268 106.57 58.6434 107.041 58.6434H127.19C127.661 58.6434 128.045 59.0271 128.045 59.4981C128.045 59.9695 127.661 60.3532 127.19 60.3532H107.041C106.569 60.3532 106.186 59.9695 106.186 59.4981ZM106.858 59.4981C106.858 59.5973 106.942 59.6812 107.041 59.6812H127.19C127.289 59.6812 127.373 59.5973 127.373 59.4981C127.373 59.399 127.289 59.3154 127.19 59.3154H107.041C106.942 59.315 106.858 59.399 106.858 59.4981ZM106.186 61.8134C106.186 61.342 106.57 60.9586 107.041 60.9586H116.142C116.613 60.9586 116.997 61.3423 116.997 61.8134C116.997 62.2847 116.613 62.6684 116.142 62.6684H107.041C106.569 62.6684 106.186 62.2847 106.186 61.8134ZM106.858 61.8134C106.858 61.9125 106.942 61.9965 107.041 61.9965H116.142C116.242 61.9965 116.325 61.9125 116.325 61.8134C116.325 61.7143 116.242 61.6306 116.142 61.6306H107.041C106.942 61.6306 106.858 61.7143 106.858 61.8134Z" fill="#828282"/>
</svg>
