<svg width="256" height="34" viewBox="0 0 256 34" fill="none" xmlns="http://www.w3.org/2000/svg">
<path d="M88.2979 1H55.6634C55.6581 1 55.6538 1.00428 55.6538 1.00957V33.6441C55.6538 33.6494 55.6581 33.6537 55.6634 33.6537H88.2979C88.3032 33.6537 88.3075 33.6494 88.3075 33.6441V1.00957C88.3075 1.00428 88.3032 1 88.2979 1Z" fill="black"/>
<path d="M88.2979 1H55.6634C55.6581 1 55.6538 1.00428 55.6538 1.00957V33.6441C55.6538 33.6494 55.6581 33.6537 55.6634 33.6537H88.2979C88.3032 33.6537 88.3075 33.6494 88.3075 33.6441V1.00957C88.3075 1.00428 88.3032 1 88.2979 1Z" fill="url(#paint0_radial_66_3138)"/>
<path d="M88.2979 1H55.6634C55.6581 1 55.6538 1.00428 55.6538 1.00957V33.6441C55.6538 33.6494 55.6581 33.6537 55.6634 33.6537H88.2979C88.3032 33.6537 88.3075 33.6494 88.3075 33.6441V1.00957C88.3075 1.00428 88.3032 1 88.2979 1Z" fill="url(#paint1_linear_66_3138)"/>
<path d="M76.6362 7.50513H67.3248C64.4718 7.50513 62.1589 9.81798 62.1589 12.671V21.9824C62.1589 24.8355 64.4718 27.1483 67.3248 27.1483H76.6362C79.4893 27.1483 81.8022 24.8355 81.8022 21.9824V12.671C81.8022 9.81798 79.4893 7.50513 76.6362 7.50513Z" stroke="white" stroke-width="1.9133"/>
<path d="M71.9806 21.9187C74.5166 21.9187 76.5725 19.8628 76.5725 17.3268C76.5725 14.7907 74.5166 12.7349 71.9806 12.7349C69.4445 12.7349 67.3887 14.7907 67.3887 17.3268C67.3887 19.8628 69.4445 21.9187 71.9806 21.9187Z" stroke="white" stroke-width="1.9133"/>
<path d="M77.7843 11.9057C77.9956 11.9057 78.1669 11.7344 78.1669 11.523C78.1669 11.3117 77.9956 11.1404 77.7843 11.1404C77.5729 11.1404 77.4016 11.3117 77.4016 11.523C77.4016 11.7344 77.5729 11.9057 77.7843 11.9057Z" stroke="white" stroke-width="1.9133"/>
<path d="M143.951 1H111.317C111.312 1 111.307 1.00428 111.307 1.00957V33.6441C111.307 33.6494 111.312 33.6537 111.317 33.6537H143.951C143.957 33.6537 143.961 33.6494 143.961 33.6441V1.00957C143.961 1.00428 143.957 1 143.951 1Z" fill="#1877F2"/>
<path d="M133.986 22.0463L134.713 17.3268H130.185V14.2656C130.185 12.9773 130.817 11.7145 132.845 11.7145H134.905V7.69657C134.905 7.69657 133.036 7.37769 131.25 7.37769C127.519 7.37769 125.083 9.63538 125.083 13.7298V17.3268H120.938V22.0463H125.083V33.6537H130.185V22.0463H133.986Z" fill="white"/>
<path d="M10.2689 30.5318C22.5917 30.5318 29.3298 20.3223 29.3298 11.4709C29.3298 11.1812 29.3298 10.8914 29.3117 10.6043C30.6228 9.65564 31.7544 8.48109 32.6537 7.13566C31.4315 7.67773 30.135 8.03347 28.8073 8.19101C30.2053 7.35297 31.2513 6.03578 31.7509 4.48436C30.4356 5.26513 28.9966 5.81539 27.4959 6.11135C26.486 5.03746 25.1502 4.32637 23.6954 4.08814C22.2406 3.8499 20.7478 4.09779 19.4481 4.79346C18.1483 5.48912 17.1141 6.59377 16.5055 7.93645C15.8968 9.27913 15.7477 10.785 16.0811 12.221C13.4175 12.0875 10.8118 11.3954 8.43305 10.1896C6.05431 8.98371 3.95577 7.29108 2.27365 5.22155C1.41608 6.69597 1.15271 8.4418 1.53716 10.1036C1.92161 11.7654 2.92498 13.2182 4.34296 14.1661C3.28416 14.1303 2.24923 13.8421 1.32436 13.3255V13.4108C1.32417 14.9558 1.8578 16.4534 2.83492 17.6502C3.81204 18.847 5.17264 19.6694 6.68645 19.9783C5.69963 20.2471 4.66431 20.286 3.66009 20.0921C4.08764 21.424 4.92094 22.5889 6.04336 23.4238C7.16577 24.2586 8.52113 24.7217 9.91974 24.748C7.5452 26.6076 4.61457 27.6152 1.59854 27.6089C1.06433 27.6092 0.530563 27.5781 0 27.5157C3.06327 29.4834 6.62816 30.5277 10.2689 30.524" fill="#1DA1F2"/>
<path d="M252.86 0.000123656H225.024C224.392 -0.00630398 223.784 0.238079 223.332 0.679649C222.881 1.12122 222.623 1.72391 222.615 2.35547V30.3038C222.624 30.9344 222.883 31.5357 223.334 31.9762C223.785 32.4166 224.393 32.6602 225.024 32.6538H252.86C253.491 32.6588 254.099 32.4136 254.55 31.9717C255.002 31.5299 255.26 30.9273 255.268 30.2958V2.34744C255.257 1.71773 254.998 1.11791 254.547 0.678372C254.096 0.238829 253.489 -0.00491401 252.86 0.000123656Z" fill="#0076B2"/>
<path d="M227.449 12.24H232.296V27.8361H227.449V12.24ZM229.874 4.47803C230.43 4.47803 230.973 4.64292 231.435 4.95184C231.897 5.26077 232.258 5.69984 232.47 6.21353C232.683 6.72721 232.738 7.29241 232.63 7.83764C232.521 8.38287 232.253 8.88362 231.86 9.27655C231.467 9.66948 230.966 9.93693 230.42 10.0451C229.875 10.1532 229.31 10.0972 228.796 9.88404C228.283 9.67092 227.844 9.3103 227.536 8.84779C227.227 8.38527 227.063 7.84166 227.063 7.28571C227.064 6.54082 227.36 5.82668 227.887 5.30022C228.414 4.77375 229.129 4.47803 229.874 4.47803Z" fill="white"/>
<path d="M235.336 12.24H239.983V14.3812H240.047C240.695 13.1553 242.274 11.8626 244.632 11.8626C249.541 11.8519 250.451 15.0824 250.451 19.2712V27.8361H245.604V20.2481C245.604 18.4415 245.571 16.1156 243.085 16.1156C240.598 16.1156 240.176 18.0855 240.176 20.1304V27.8361H235.336V12.24Z" fill="white"/>
<path fill-rule="evenodd" clip-rule="evenodd" d="M194.421 28.569H172.154C169.298 28.569 166.961 26.224 166.961 23.3578V11.2112C166.961 8.34503 169.298 6 172.154 6H194.421C197.278 6 199.615 8.34503 199.615 11.2112V23.3578C199.615 26.224 197.278 28.569 194.421 28.569ZM179.563 12.8437V22.4825L188.004 17.5822L179.563 12.8437Z" fill="#E43535"/>
<defs>
<radialGradient id="paint0_radial_66_3138" cx="0" cy="0" r="1" gradientUnits="userSpaceOnUse" gradientTransform="translate(68.7153 33.6537) scale(32.6537)">
<stop offset="0.1" stop-color="#FFDD55"/>
<stop offset="0.5" stop-color="#FF543E"/>
<stop offset="1" stop-color="#C837AB"/>
</radialGradient>
<linearGradient id="paint1_linear_66_3138" x1="55.6538" y1="1" x2="62.1845" y2="33.6537" gradientUnits="userSpaceOnUse">
<stop offset="0.1" stop-color="#3771C8"/>
<stop offset="0.5" stop-color="#6600FF" stop-opacity="0"/>
</linearGradient>
</defs>
</svg>
